<?xml version="1.0" encoding="iso-8859-1"?>
<!-- Generator: Adobe Illustrator 19.0.0, SVG Export Plug-In . SVG Version: 6.00 Build 0)  -->
<svg version="1.1" id="Layer_1" xmlns="http://www.w3.org/2000/svg" xmlns:xlink="http://www.w3.org/1999/xlink" x="0px" y="0px"
	 viewBox="0 0 434.157 434.157" style="enable-background:new 0 0 434.157 434.157;" xml:space="preserve">
<g>
	<path style="fill:#3E81C8;" d="M217.751,273.424c-20.733,0-37.6-16.867-37.6-37.6s16.867-37.601,37.6-37.601
		s37.6,16.867,37.6,37.601C255.351,256.556,238.484,273.424,217.751,273.424z"/>
	<path style="fill:#EB7830;" d="M180.151,248.067l-50.52,87.39c-0.63-0.4-10.215-7.76-26.47-7.76c-17.56,0-33.91,9.43-42.67,24.62
		c-6.57,11.39-8.32,24.65-4.92,37.35c3.41,12.7,18.595,36.49,47.5,36.49c17.56,0,33.92-9.44,42.68-24.63l73.13-126.65
		L180.151,248.067z M103.166,394.424c-9.665,0-17.5-7.835-17.5-17.5s7.835-17.5,17.5-17.5s17.5,7.835,17.5,17.5
		S112.83,394.424,103.166,394.424z"/>
	<path style="fill:#F5C525;" d="M254.01,248.067l50.52,87.39c0.63-0.4,10.215-7.76,26.47-7.76c17.56,0,33.91,9.43,42.67,24.62
		c6.57,11.39,8.32,24.65,4.92,37.35c-3.41,12.7-18.595,36.49-47.5,36.49c-17.56,0-33.92-9.44-42.68-24.63l-73.13-126.65
		L254.01,248.067z M330.995,394.424c9.665,0,17.5-7.835,17.5-17.5s-7.835-17.5-17.5-17.5s-17.5,7.835-17.5,17.5
		S321.33,394.424,330.995,394.424z"/>
	<path style="fill:#EB7830;" d="M221.716,197.232L331.774,6.61l0.416,29.02c0.624,43.521-3.725,122.443-39.859,162.047
		c-9.707,10.629-21.161,17.809-34.044,21.342l-5.676,1.557L221.716,197.232z"/>
	<path style="fill:#F5C525;" d="M182.817,220.793l-5.641-1.436c-13.437-3.422-25.328-10.719-35.344-21.689
		c-36.137-39.617-40.485-118.527-39.861-162.039l0.416-29.018l110.181,190.832L182.817,220.793z"/>
	<g>
		<path style="fill:#231F20;" d="M103.166,351.748c-13.904,0-25.176,11.271-25.176,25.176S89.261,402.1,103.166,402.1
			c13.904,0,25.176-11.271,25.176-25.176S117.07,351.748,103.166,351.748z M103.166,385.924c-4.97,0-9-4.03-9-9c0-4.971,4.03-9,9-9
			c4.971,0,9,4.029,9,9C112.166,381.894,108.136,385.924,103.166,385.924z"/>
		<path style="fill:#231F20;" d="M330.991,351.518c-13.904,0-25.176,11.271-25.176,25.176s11.272,25.176,25.176,25.176
			s25.176-11.271,25.176-25.176S344.895,351.518,330.991,351.518z M330.991,385.694c-4.97,0-9-4.03-9-9c0-4.971,4.03-9,9-9
			c4.971,0,9,4.029,9,9C339.991,381.664,335.961,385.694,330.991,385.694z"/>
		<path style="fill:#231F20;" d="M332.078,317.737c-9.06,0-17.63,2.07-25.27,5.76l-44.647-77.333c0.77-3.32,1.19-6.78,1.19-10.34
			c0-3.32-0.36-6.55-1.04-9.67c13.64-4.14,25.67-11.84,35.94-23.1c52.73-57.82,41.21-190.18,40.69-195.79
			c-0.32-3.47-2.85-6.33-6.25-7.08c-3.4-0.74-6.9,0.8-8.64,3.81l-106.97,185.27L110.11,3.994c-1.74-3.01-5.23-4.55-8.64-3.81
			c-3.4,0.75-5.93,3.61-6.25,7.08c-0.52,5.61-12.04,137.95,40.69,195.77c10.58,11.61,23.05,19.44,37.21,23.46
			c-0.63,3.02-0.97,6.14-0.97,9.33c0,2.96,0.3,5.84,0.84,8.64l-45.636,79.035c-7.645-3.69-16.218-5.762-25.274-5.762
			c-32.15,0-58.21,26.06-58.21,58.21s26.06,58.21,59.199,58.207c20.41,0,39.41-10.97,49.6-28.62l64.41-111.55l64.408,111.553
			c10.19,17.65,29.19,28.62,49.6,28.62c33.14,0,59.2-26.06,59.2-58.21C390.288,343.797,364.228,317.737,332.078,317.737z
			 M324.19,35.744c0.59,41.16-3.29,118.75-37.77,156.54c-8.73,9.56-18.73,15.86-30.25,19.02c-5.35-8.35-13.33-14.85-22.77-18.31
			L324.19,35.744z M147.741,192.274c-34.48-37.8-38.36-115.37-37.77-156.53l91.04,157.68c-9.07,3.6-16.72,10.02-21.86,18.18
			C167.13,208.544,156.761,202.154,147.741,192.274z M138.82,397.534c-7.34,12.72-21.04,20.62-35.75,20.62
			c-24.544,0-36.92-19.93-39.77-30.56c-2.85-10.64-1.38-21.75,4.12-31.28c7.34-12.72,21.04-20.62,35.74-20.62
			c7.19,0,14.3,1.91,20.57,5.53c0.56,0.32,1.1,0.66,1.64,1c1.84,1.18,4.08,1.55,6.2,1.03c2.12-0.52,3.94-1.88,5.03-3.77l44.34-76.79
			c6.2,8.47,15.24,14.73,25.71,17.36L138.82,397.534z M188.15,235.824c0-16.32,13.28-29.6,29.6-29.6s29.6,13.28,29.6,29.6
			s-13.28,29.6-29.6,29.6S188.15,252.144,188.15,235.824z M370.858,387.597c-2.85,10.63-15.22,30.56-39.77,30.56
			c-14.71,0-28.41-7.9-35.75-20.62l-67.667-117.213c10.55-2.35,19.73-8.36,26.13-16.62l43.757,75.783c1.09,1.89,2.91,3.25,5.03,3.77
			s4.36,0.15,6.2-1.03c0.54-0.34,1.08-0.68,1.64-1c6.27-3.62,13.38-5.53,20.57-5.53c14.7,0,28.4,7.9,35.74,20.62
			C372.238,365.847,373.708,376.957,370.858,387.597z"/>
	</g>
</g>
<g>
</g>
<g>
</g>
<g>
</g>
<g>
</g>
<g>
</g>
<g>
</g>
<g>
</g>
<g>
</g>
<g>
</g>
<g>
</g>
<g>
</g>
<g>
</g>
<g>
</g>
<g>
</g>
<g>
</g>
</svg>
